<svg xmlns="http://www.w3.org/2000/svg" xmlns:xlink="http://www.w3.org/1999/xlink" width="1080" zoomAndPan="magnify" viewBox="0 0 810 809.999993" height="1080" preserveAspectRatio="xMidYMid meet" version="1.0"><defs><clipPath id="9facd09565"><path d="M 286 143 L 528 143 L 528 705.070312 L 286 705.070312 Z M 286 143 " clip-rule="nonzero"/></clipPath></defs><path fill="#000000" d="M 205.351562 625.210938 C 193.375 625.210938 185.386719 621.21875 177.402344 613.234375 L 17.683594 453.515625 C 1.710938 437.542969 1.710938 413.585938 17.683594 397.613281 L 177.402344 237.894531 C 193.375 221.921875 217.332031 221.921875 233.304688 237.894531 C 249.273438 253.867188 249.273438 277.824219 233.304688 293.796875 L 101.535156 425.5625 L 233.304688 557.332031 C 249.273438 573.304688 249.273438 597.261719 233.304688 613.234375 C 225.316406 621.21875 217.332031 625.210938 205.351562 625.210938 Z M 205.351562 625.210938 " fill-opacity="1" fill-rule="nonzero"/><path fill="#000000" d="M 604.648438 625.210938 C 592.667969 625.210938 584.683594 621.21875 576.695312 613.234375 C 560.726562 597.261719 560.726562 573.304688 576.695312 557.332031 L 708.464844 425.5625 L 576.695312 293.796875 C 560.726562 277.824219 560.726562 253.867188 576.695312 237.894531 C 592.667969 221.921875 616.625 221.921875 632.597656 237.894531 L 792.316406 397.613281 C 808.289062 413.585938 808.289062 437.542969 792.316406 453.515625 L 632.597656 613.234375 C 624.613281 621.21875 616.625 625.210938 604.648438 625.210938 Z M 604.648438 625.210938 " fill-opacity="1" fill-rule="nonzero"/><g clip-path="url(#9facd09565)"><path fill="#000000" d="M 325.140625 705.070312 C 321.148438 705.070312 317.15625 705.070312 313.160156 701.078125 C 293.195312 693.089844 281.21875 673.125 289.203125 649.167969 L 448.921875 170.015625 C 456.910156 150.050781 476.875 138.070312 500.832031 146.054688 C 520.796875 154.042969 532.773438 174.007812 524.789062 197.964844 L 365.070312 677.121094 C 357.085938 693.089844 341.113281 705.070312 325.140625 705.070312 Z M 325.140625 705.070312 " fill-opacity="1" fill-rule="nonzero"/></g></svg>